# xmcd
#
# Track frame offsets:
# 150
# 8826
# 24226
# 38270
# 53066
# 67092
# 75164
# 88497
# 101953
# 114242
# 127256
# 151574
# 168402
# 187413
# 205891
# 221424
# 240280
#
# Disc length: 3432 seconds
#
#
# Revision: 6
# Processed by: cddbd v1.5.2PL0 Copyright (c) Steve Scherf et al.
# Submitted via: FreeRIP 2.91 
#
DISCID=d80d6611
DTITLE=The Blues Brothers - The Blues Brothers Complete (Disc-1)
DYEAR=1900
DGENRE=Blues
TTITLE0=I Cant Turn You Loose
TTITLE1=Everybody Needs Somebody To Love
TTITLE2=Gimme Some Lovin
TTITLE3=Think
TTITLE4=Soul Man
TTITLE5=Soul Finder
TTITLE6=Messin With The Kid
TTITLE7=Hey Bartender
TTITLE8=(I Got Everything I Need) Almost
TTITLE9=Rubber Buiscuit
TTITLE10=Shotgun Blues
TTITLE11=Groove Me
TTITLE12=I Dont Know
TTITLE13="B" Movie Box Car Blues
TTITLE14=Flipflop And Fly
TTITLE15=She Caught The Katy
TTITLE16=Peter Gunn Theme
EXTD=
EXTT0=
EXTT1=
EXTT2=
EXTT3=
EXTT4=
EXTT5=
EXTT6=
EXTT7=
EXTT8=
EXTT9=
EXTT10=
EXTT11=
EXTT12=
EXTT13=
EXTT14=
EXTT15=
EXTT16=
PLAYORDER=
